<?xml version="1.0" ?><svg id="Layer_1" style="enable-background:new 0 0 65 65;" version="1.1" viewBox="0 0 65 65" xml:space="preserve" xmlns="http://www.w3.org/2000/svg" xmlns:xlink="http://www.w3.org/1999/xlink"><style type="text/css">
	.st0{fill:#3D3D3D;}
</style><g><g><path class="st0" d="M63.6,54.9H47.1v-5.7c6.1-3.5,9.8-9.1,9.8-15c0-1.5-0.2-2.9-0.7-4.4c2.5-2.1,4.2-5.2,4.2-8.7    c0-6.2-5-11.2-11.2-11.2c-4.4,0-8.3,2.6-10.1,6.3c-3.1-0.7-6.4-0.9-9.6-0.6c0,0,0,0,0,0c-2.1,0.2-4.1,0.6-6,1.2    c-0.4,0.1-0.6,0.5-0.5,0.9c0.1,0.3,0.4,0.5,0.7,0.5c0.1,0,0.1,0,0.2,0c1.8-0.6,3.8-0.9,5.7-1.1c0,0,0,0,0,0c2.9-0.3,6-0.1,8.9,0.5    c-0.4,1.1-0.6,2.3-0.6,3.5c0,6.2,5,11.2,11.2,11.2c2.1,0,4.1-0.6,5.7-1.6c0.3,1.1,0.5,2.3,0.5,3.5c0,5.4-3.5,10.6-9.4,13.9    c-0.2,0.1-0.4,0.4-0.4,0.7v6.1h-5v-3.6c0-0.2-0.1-0.4-0.3-0.6s-0.4-0.2-0.6-0.1c-3.4,0.8-7,1.1-10.5,0.7c-0.4,0-0.8,0.2-0.8,0.7    c0,0.4,0.3,0.8,0.7,0.8c3.4,0.4,6.8,0.2,10.1-0.5v2.7H22.7v-3.6c0.8,0.3,1.5,0.5,2.3,0.7c0.4,0.1,0.8-0.1,0.9-0.5    c0.1-0.4-0.1-0.8-0.5-0.9c-1.1-0.3-2.1-0.6-3.1-1c-0.2-0.1-0.5-0.1-0.7,0.1c-0.2,0.1-0.3,0.4-0.3,0.6v4.6h-5v-8.3    c0-0.2-0.1-0.4-0.3-0.6c-2.8-2.2-4.8-5-5.6-7.9c-0.1-0.3-0.4-0.5-0.7-0.5H6.4v-6.6h3.1c0.3,0,0.6-0.2,0.7-0.5    c0.8-2.6,2.5-5.1,4.9-7.2c0.2-0.1,0.3-0.3,0.3-0.6v-7.1c1.7,0.1,3.3,0.7,4.6,1.8c0.3,0.2,0.8,0.2,1-0.2c0.2-0.3,0.2-0.8-0.2-1    c-1.8-1.4-4-2.1-6.3-2.1c-0.2,0-0.4,0.1-0.5,0.2s-0.2,0.3-0.2,0.5v7.6c-2.3,2.1-4,4.6-4.9,7.2H5.6c-0.4,0-0.8,0.3-0.8,0.8v8.1    c0,0.4,0.3,0.8,0.8,0.8H9c1,2.9,3,5.6,5.7,7.9v8h-13c-0.4,0-0.8,0.3-0.8,0.8s0.3,0.8,0.8,0.8h13.8h6.5h17.9h6.5h17.3    c0.4,0,0.8-0.3,0.8-0.8S64,54.9,63.6,54.9z M49.2,30.8c-5.3,0-9.7-4.4-9.7-9.7s4.4-9.7,9.7-9.7s9.7,4.4,9.7,9.7    S54.5,30.8,49.2,30.8z"/><path class="st0" d="M54.6,58.9h-44c-0.4,0-0.8,0.3-0.8,0.8s0.3,0.8,0.8,0.8h44c0.4,0,0.8-0.3,0.8-0.8S55,58.9,54.6,58.9z"/><path class="st0" d="M46.6,62.9h-6c-0.4,0-0.8,0.3-0.8,0.8s0.3,0.8,0.8,0.8h6c0.4,0,0.8-0.3,0.8-0.8S47,62.9,46.6,62.9z"/><path class="st0" d="M36.6,62.9h-18c-0.4,0-0.8,0.3-0.8,0.8s0.3,0.8,0.8,0.8h18c0.4,0,0.8-0.3,0.8-0.8S37,62.9,36.6,62.9z"/><path class="st0" d="M3.6,48.6C3.6,48.6,3.6,48.6,3.6,48.6c-0.4,0.9-1.1,1.6-2,2c0,0,0,0,0,0c0,0,0,0,0,0c0.9,0.4,1.6,1.1,2,2    c0,0,0,0,0,0c0,0,0,0,0,0c0.4-0.9,1.1-1.6,2-2c0,0,0,0,0,0c0,0,0,0,0,0C4.7,50.2,4.1,49.5,3.6,48.6C3.6,48.6,3.6,48.6,3.6,48.6z"/><path class="st0" d="M3.6,6.6C3.6,6.6,3.6,6.6,3.6,6.6C3.6,6.6,3.6,6.6,3.6,6.6c0.7-1.3,1.7-2.3,3-3c0,0,0,0,0,0c0,0,0,0,0,0    c-1.3-0.6-2.3-1.7-3-3c0,0,0,0,0,0c0,0,0,0,0,0C3,1.9,1.9,3,0.6,3.6c0,0,0,0,0,0c0,0,0,0,0,0C1.9,4.3,3,5.3,3.6,6.6z"/><path class="st0" d="M57.6,42.6C57.6,42.6,57.6,42.6,57.6,42.6C57.6,42.6,57.6,42.6,57.6,42.6c-0.4,0.9-1.1,1.6-2,2c0,0,0,0,0,0    c0,0,0,0,0,0c0.9,0.4,1.6,1.1,2,2c0,0,0,0,0,0c0,0,0,0,0,0c0.4-0.9,1.1-1.6,2-2c0,0,0,0,0,0c0,0,0,0,0,0    C58.7,44.2,58.1,43.5,57.6,42.6z"/><path class="st0" d="M50.6,4.6C50.6,4.6,50.6,4.6,50.6,4.6C50.6,4.6,50.6,4.6,50.6,4.6c0.2-0.4,0.6-0.8,1-1c0,0,0,0,0,0    c0,0,0,0,0,0c-0.4-0.2-0.8-0.6-1-1c0,0,0,0,0,0c0,0,0,0,0,0c-0.2,0.4-0.6,0.8-1,1c0,0,0,0,0,0c0,0,0,0,0,0    C50.1,3.8,50.4,4.2,50.6,4.6z"/><path class="st0" d="M49.7,20.5c-0.9-0.4-1.3-0.6-1.3-1.1c0-0.4,0.3-0.8,1-0.8c0.7,0,1.2,0.3,1.5,0.4v0c0,0,0,0,0,0l0.3-1    c-0.4-0.2-0.8-0.3-1.5-0.4v-1h0h-0.9h0v1.1c-1.1,0.2-1.8,0.9-1.8,1.9c0,1,0.7,1.6,1.9,2c0.8,0.3,1.2,0.6,1.2,1.1    c0,0.5-0.5,0.9-1.2,0.9c-0.7,0-1.3-0.2-1.7-0.5l0,0c0,0,0,0,0,0l-0.3,1c0.4,0.3,1.1,0.5,1.8,0.5v1.1h0h0.9h0v-1.1    c1.2-0.2,1.9-1,1.9-2C51.4,21.6,50.9,21,49.7,20.5z"/><path class="st0" d="M13.8,29.3c0,1.3,1.1,2.4,2.4,2.4s2.4-1.1,2.4-2.4c0-1.3-1.1-2.4-2.4-2.4S13.8,28,13.8,29.3z M17.1,29.3    c0,0.5-0.4,0.9-0.9,0.9s-0.9-0.4-0.9-0.9c0-0.5,0.4-0.9,0.9-0.9S17.1,28.8,17.1,29.3z"/><path class="st0" d="M49.2,13.4c-4.3,0-7.7,3.5-7.7,7.7s3.5,7.7,7.7,7.7s7.7-3.5,7.7-7.7S53.4,13.4,49.2,13.4z M49.2,27.3    c-3.4,0-6.2-2.8-6.2-6.2s2.8-6.2,6.2-6.2s6.2,2.8,6.2,6.2S52.6,27.3,49.2,27.3z"/></g></g></svg>